<svg width="138" height="48" viewBox="0 0 138 48" fill="none" xmlns="http://www.w3.org/2000/svg">
<rect width="138" height="48" rx="24" fill="#189CEF"/>
<g clip-path="url(#clip0_1_2822)">
<path d="M47.2995 17.55C46.5395 17.5499 45.8098 17.8481 45.2674 18.3806C44.7251 18.913 44.4134 19.6371 44.3995 20.397L44.3715 21.972C44.3699 22.0566 44.3504 22.1398 44.3143 22.2163C44.2782 22.2928 44.2264 22.3608 44.1622 22.4159C44.098 22.4709 44.0228 22.5118 43.9417 22.5358C43.8606 22.5597 43.7754 22.5663 43.6915 22.555L42.1305 22.343C40.0765 22.063 38.1085 21.117 36.2205 19.544C35.6225 22.854 36.7905 25.147 39.6035 26.916L41.3505 28.014C41.4335 28.0662 41.5025 28.1379 41.5514 28.2228C41.6003 28.3078 41.6276 28.4035 41.6309 28.5015C41.6343 28.5995 41.6136 28.6968 41.5706 28.7849C41.5277 28.873 41.4638 28.9493 41.3845 29.007L39.7925 30.17C40.7395 30.229 41.6385 30.187 42.3845 30.039C47.1025 29.097 50.2395 25.547 50.2395 19.691C50.2395 19.213 49.2275 17.55 47.2995 17.55ZM42.3995 20.36C42.417 19.396 42.7184 18.4587 43.2661 17.6652C43.8138 16.8718 44.5833 16.2575 45.4784 15.8994C46.3736 15.5412 47.3544 15.4551 48.2983 15.6517C49.2421 15.8484 50.107 16.3191 50.7845 17.005C51.4955 17 52.1005 17.18 53.4535 16.36C53.1185 18 52.9535 18.712 52.2395 19.691C52.2395 27.333 47.5425 31.049 42.7765 32C39.5085 32.652 34.7565 31.581 33.3945 30.159C34.0885 30.105 36.9085 29.802 38.5385 28.609C37.1595 27.7 31.6705 24.47 35.2775 15.786C36.9705 17.763 38.6875 19.109 40.4275 19.823C41.5855 20.298 41.8695 20.288 42.4005 20.361L42.3995 20.36Z" fill="#F2F2F2"/>
</g>
<path d="M72.3793 17.336V19.1H68.5273V29H66.4753V19.1H62.5693V17.336H72.3793ZM83.2525 21.026V21.134L80.8945 29H79.0405L77.7265 24.572C77.5465 23.96 77.4265 23.468 77.3665 23.096C77.2945 23.564 77.1805 24.056 77.0245 24.572L75.7645 29.018H73.9105L71.3905 21.134V21.026H73.4965L74.6665 25.472C74.7625 25.832 74.8465 26.246 74.9185 26.714C75.0505 26.102 75.1465 25.688 75.2065 25.472L76.4485 21.026H78.4105L79.6705 25.418C79.8145 25.958 79.9225 26.438 79.9945 26.858C80.0425 26.402 80.1205 25.922 80.2285 25.418L81.2905 21.026H83.2525ZM91.1029 24.194C91.1029 24.566 91.0849 24.968 91.0489 25.4H85.6849C85.7329 26.192 85.9549 26.774 86.3509 27.146C86.7589 27.518 87.2629 27.704 87.8629 27.704C88.2949 27.704 88.6849 27.65 89.0329 27.542C89.3809 27.422 89.7769 27.236 90.2209 26.984L90.9049 28.244C90.4729 28.544 89.9869 28.784 89.4469 28.964C88.9189 29.144 88.3429 29.234 87.7189 29.234C86.9509 29.234 86.2669 29.096 85.6669 28.82C85.0789 28.544 84.6109 28.1 84.2629 27.488C83.9149 26.876 83.7409 26.084 83.7409 25.112C83.7409 24.272 83.8909 23.528 84.1909 22.88C84.4909 22.22 84.9349 21.704 85.5229 21.332C86.1109 20.96 86.8189 20.774 87.6469 20.774C88.3909 20.774 89.0209 20.924 89.5369 21.224C90.0529 21.512 90.4429 21.92 90.7069 22.448C90.9709 22.964 91.1029 23.546 91.1029 24.194ZM87.6649 22.178C87.1369 22.178 86.7169 22.34 86.4049 22.664C86.0929 22.988 85.8829 23.45 85.7749 24.05H89.2309V23.996C89.2309 23.372 89.0869 22.916 88.7989 22.628C88.5229 22.328 88.1449 22.178 87.6649 22.178ZM99.6635 24.194C99.6635 24.566 99.6455 24.968 99.6095 25.4H94.2455C94.2935 26.192 94.5155 26.774 94.9115 27.146C95.3195 27.518 95.8235 27.704 96.4235 27.704C96.8555 27.704 97.2455 27.65 97.5935 27.542C97.9415 27.422 98.3375 27.236 98.7815 26.984L99.4655 28.244C99.0335 28.544 98.5475 28.784 98.0075 28.964C97.4795 29.144 96.9035 29.234 96.2795 29.234C95.5115 29.234 94.8275 29.096 94.2275 28.82C93.6395 28.544 93.1715 28.1 92.8235 27.488C92.4755 26.876 92.3015 26.084 92.3015 25.112C92.3015 24.272 92.4515 23.528 92.7515 22.88C93.0515 22.22 93.4955 21.704 94.0835 21.332C94.6715 20.96 95.3795 20.774 96.2075 20.774C96.9515 20.774 97.5815 20.924 98.0975 21.224C98.6135 21.512 99.0035 21.92 99.2675 22.448C99.5315 22.964 99.6635 23.546 99.6635 24.194ZM96.2255 22.178C95.6975 22.178 95.2775 22.34 94.9655 22.664C94.6535 22.988 94.4435 23.45 94.3355 24.05H97.7915V23.996C97.7915 23.372 97.6475 22.916 97.3595 22.628C97.0835 22.328 96.7055 22.178 96.2255 22.178ZM106.499 28.694C105.803 29.054 105.083 29.234 104.339 29.234C103.871 29.234 103.451 29.144 103.079 28.964C102.707 28.784 102.413 28.502 102.197 28.118C101.981 27.734 101.873 27.254 101.873 26.678V22.556H100.343V21.026H101.873V19.226L103.817 18.938V21.026H106.301L106.103 22.556H103.817V26.372C103.817 26.816 103.895 27.14 104.051 27.344C104.219 27.548 104.459 27.65 104.771 27.65C104.951 27.65 105.131 27.626 105.311 27.578C105.491 27.53 105.707 27.458 105.959 27.362L106.499 28.694Z" fill="#F2F2F2"/>
<defs>
<clipPath id="clip0_1_2822">
<rect width="24" height="24" fill="white" transform="translate(32 12)"/>
</clipPath>
</defs>
</svg>
