<svg width="138" height="48" viewBox="0 0 138 48" fill="none" xmlns="http://www.w3.org/2000/svg">
<rect width="138" height="48" rx="24" fill="#2273E6"/>
<path d="M58.1219 19.028H52.6499V22.52H57.3839L57.1679 24.212H52.6499V29H50.5979V17.336H58.1219V19.028ZM62.3976 20.774C63.3816 20.774 64.1196 20.984 64.6116 21.404C65.1036 21.824 65.3496 22.496 65.3496 23.42V29H63.6576L63.5136 28.334C63.0696 28.658 62.6136 28.886 62.1456 29.018C61.6896 29.162 61.2156 29.234 60.7236 29.234C60.2436 29.234 59.8176 29.144 59.4456 28.964C59.0856 28.784 58.8036 28.532 58.5996 28.208C58.3956 27.872 58.2936 27.488 58.2936 27.056C58.2936 26.408 58.5216 25.868 58.9776 25.436C59.4336 24.992 60.0456 24.662 60.8136 24.446C61.5816 24.23 62.4456 24.11 63.4056 24.086V23.78C63.4056 23.264 63.3096 22.892 63.1176 22.664C62.9256 22.436 62.5896 22.322 62.1096 22.322C61.2816 22.322 60.3936 22.628 59.4456 23.24L58.6536 21.998C59.2296 21.59 59.8236 21.284 60.4356 21.08C61.0476 20.876 61.7016 20.774 62.3976 20.774ZM60.3276 26.84C60.3276 27.128 60.4116 27.35 60.5796 27.506C60.7596 27.65 61.0176 27.722 61.3536 27.722C62.0256 27.722 62.7096 27.518 63.4056 27.11V25.382C62.4456 25.43 61.6896 25.58 61.1376 25.832C60.5976 26.072 60.3276 26.408 60.3276 26.84ZM70.9201 29.234C69.7801 29.234 68.8501 28.922 68.1301 28.298C67.4221 27.662 67.0681 26.63 67.0681 25.202C67.0681 24.194 67.2661 23.36 67.6621 22.7C68.0581 22.028 68.5681 21.542 69.1921 21.242C69.8161 20.93 70.4761 20.774 71.1721 20.774C71.6161 20.774 72.0421 20.834 72.4501 20.954C72.8581 21.062 73.3021 21.242 73.7821 21.494L73.0801 22.862C72.6841 22.67 72.3421 22.538 72.0541 22.466C71.7661 22.382 71.4721 22.34 71.1721 22.34C70.5241 22.34 70.0141 22.586 69.6421 23.078C69.2701 23.57 69.0841 24.272 69.0841 25.184C69.0841 26.816 69.7741 27.632 71.1541 27.632C71.5261 27.632 71.8681 27.572 72.1801 27.452C72.5041 27.332 72.8521 27.164 73.2241 26.948L73.9441 28.262C73.4881 28.55 73.0141 28.784 72.5221 28.964C72.0301 29.144 71.4961 29.234 70.9201 29.234ZM82.1644 24.194C82.1644 24.566 82.1464 24.968 82.1104 25.4H76.7464C76.7944 26.192 77.0164 26.774 77.4124 27.146C77.8204 27.518 78.3244 27.704 78.9244 27.704C79.3564 27.704 79.7464 27.65 80.0944 27.542C80.4424 27.422 80.8384 27.236 81.2824 26.984L81.9664 28.244C81.5344 28.544 81.0484 28.784 80.5084 28.964C79.9804 29.144 79.4044 29.234 78.7804 29.234C78.0124 29.234 77.3284 29.096 76.7284 28.82C76.1404 28.544 75.6724 28.1 75.3244 27.488C74.9764 26.876 74.8024 26.084 74.8024 25.112C74.8024 24.272 74.9524 23.528 75.2524 22.88C75.5524 22.22 75.9964 21.704 76.5844 21.332C77.1724 20.96 77.8804 20.774 78.7084 20.774C79.4524 20.774 80.0824 20.924 80.5984 21.224C81.1144 21.512 81.5044 21.92 81.7684 22.448C82.0324 22.964 82.1644 23.546 82.1644 24.194ZM78.7264 22.178C78.1984 22.178 77.7784 22.34 77.4664 22.664C77.1544 22.988 76.9444 23.45 76.8364 24.05H80.2924V23.996C80.2924 23.372 80.1484 22.916 79.8604 22.628C79.5844 22.328 79.2064 22.178 78.7264 22.178ZM88.457 20.774C89.513 20.774 90.305 21.134 90.833 21.854C91.361 22.574 91.625 23.564 91.625 24.824C91.625 25.88 91.397 26.738 90.941 27.398C90.497 28.058 89.927 28.532 89.231 28.82C88.535 29.096 87.797 29.234 87.017 29.234C86.621 29.234 86.159 29.192 85.631 29.108C85.103 29.036 84.539 28.91 83.939 28.73V16.616L85.883 16.418V21.53C86.759 21.026 87.617 20.774 88.457 20.774ZM86.927 27.722C87.731 27.722 88.373 27.488 88.853 27.02C89.345 26.552 89.591 25.808 89.591 24.788C89.591 23.96 89.453 23.348 89.177 22.952C88.901 22.544 88.457 22.34 87.845 22.34C87.281 22.34 86.627 22.514 85.883 22.862V27.614C86.243 27.686 86.591 27.722 86.927 27.722ZM96.7972 29.234C95.9332 29.234 95.2072 29.048 94.6192 28.676C94.0312 28.292 93.5872 27.782 93.2872 27.146C92.9992 26.498 92.8552 25.778 92.8552 24.986C92.8552 23.99 93.0412 23.18 93.4132 22.556C93.7972 21.932 94.3072 21.482 94.9432 21.206C95.5792 20.918 96.2932 20.774 97.0852 20.774C97.9612 20.774 98.6932 20.96 99.2812 21.332C99.8692 21.692 100.307 22.19 100.595 22.826C100.895 23.462 101.045 24.188 101.045 25.004C101.045 25.988 100.853 26.798 100.469 27.434C100.097 28.058 99.5932 28.514 98.9572 28.802C98.3212 29.09 97.6012 29.234 96.7972 29.234ZM96.9412 27.722C97.6852 27.722 98.2132 27.482 98.5252 27.002C98.8492 26.51 99.0112 25.838 99.0112 24.986C99.0112 24.134 98.8432 23.474 98.5072 23.006C98.1832 22.526 97.6792 22.286 96.9952 22.286C96.2392 22.286 95.6932 22.52 95.3572 22.988C95.0332 23.456 94.8712 24.122 94.8712 24.986C94.8712 25.826 95.0392 26.492 95.3752 26.984C95.7232 27.476 96.2452 27.722 96.9412 27.722ZM106.201 29.234C105.337 29.234 104.611 29.048 104.023 28.676C103.435 28.292 102.991 27.782 102.691 27.146C102.403 26.498 102.259 25.778 102.259 24.986C102.259 23.99 102.445 23.18 102.817 22.556C103.201 21.932 103.711 21.482 104.347 21.206C104.983 20.918 105.697 20.774 106.489 20.774C107.365 20.774 108.097 20.96 108.685 21.332C109.273 21.692 109.711 22.19 109.999 22.826C110.299 23.462 110.449 24.188 110.449 25.004C110.449 25.988 110.257 26.798 109.873 27.434C109.501 28.058 108.997 28.514 108.361 28.802C107.725 29.09 107.005 29.234 106.201 29.234ZM106.345 27.722C107.089 27.722 107.617 27.482 107.929 27.002C108.253 26.51 108.415 25.838 108.415 24.986C108.415 24.134 108.247 23.474 107.911 23.006C107.587 22.526 107.083 22.286 106.399 22.286C105.643 22.286 105.097 22.52 104.761 22.988C104.437 23.456 104.275 24.122 104.275 24.986C104.275 25.826 104.443 26.492 104.779 26.984C105.127 27.476 105.649 27.722 106.345 27.722ZM116.308 24.716L119.602 28.874V29H117.28L114.184 24.914V29H112.24V16.616L114.184 16.418V24.644L117.334 21.026H119.44V21.134L116.308 24.716Z" fill="#F2F2F2"/>
<g clip-path="url(#clip0_1_2829)">
<path d="M33 25.5H35.5L36.5 21.5H33V19.5C33 18.47 33 17.5 35 17.5H36.5V14.14C36.174 14.097 34.943 14 33.643 14C30.928 14 29 15.657 29 18.7V21.5H26V25.5H29V34H33V25.5Z" fill="#F2F2F2"/>
</g>
<defs>
<clipPath id="clip0_1_2829">
<rect width="24" height="24" fill="white" transform="translate(19 12)"/>
</clipPath>
</defs>
</svg>
