<svg width="138" height="48" viewBox="0 0 138 48" fill="none" xmlns="http://www.w3.org/2000/svg">
<rect width="138" height="48" rx="24" fill="#4CB050"/>
<path d="M60.0504 21.026V21.134L57.6924 29H55.8384L54.5244 24.572C54.3444 23.96 54.2244 23.468 54.1644 23.096C54.0924 23.564 53.9784 24.056 53.8224 24.572L52.5624 29.018H50.7084L48.1884 21.134V21.026H50.2944L51.4644 25.472C51.5604 25.832 51.6444 26.246 51.7164 26.714C51.8484 26.102 51.9444 25.688 52.0044 25.472L53.2464 21.026H55.2084L56.4684 25.418C56.6124 25.958 56.7204 26.438 56.7924 26.858C56.8404 26.402 56.9184 25.922 57.0264 25.418L58.0884 21.026H60.0504ZM66.0944 20.774C66.8744 20.774 67.4804 20.972 67.9124 21.368C68.3444 21.764 68.5604 22.382 68.5604 23.222V29H66.6164V23.888C66.6164 23.492 66.5744 23.186 66.4904 22.97C66.4064 22.742 66.2684 22.58 66.0764 22.484C65.8964 22.388 65.6444 22.34 65.3204 22.34C64.6844 22.34 64.0184 22.52 63.3224 22.88V29H61.3784V16.616L63.3224 16.418V21.548C64.2464 21.032 65.1704 20.774 66.0944 20.774ZM74.2375 20.774C75.2215 20.774 75.9595 20.984 76.4515 21.404C76.9435 21.824 77.1895 22.496 77.1895 23.42V29H75.4975L75.3535 28.334C74.9095 28.658 74.4535 28.886 73.9855 29.018C73.5295 29.162 73.0555 29.234 72.5635 29.234C72.0835 29.234 71.6575 29.144 71.2855 28.964C70.9255 28.784 70.6435 28.532 70.4395 28.208C70.2355 27.872 70.1335 27.488 70.1335 27.056C70.1335 26.408 70.3615 25.868 70.8175 25.436C71.2735 24.992 71.8855 24.662 72.6535 24.446C73.4215 24.23 74.2855 24.11 75.2455 24.086V23.78C75.2455 23.264 75.1495 22.892 74.9575 22.664C74.7655 22.436 74.4295 22.322 73.9495 22.322C73.1215 22.322 72.2335 22.628 71.2855 23.24L70.4935 21.998C71.0695 21.59 71.6635 21.284 72.2755 21.08C72.8875 20.876 73.5415 20.774 74.2375 20.774ZM72.1675 26.84C72.1675 27.128 72.2515 27.35 72.4195 27.506C72.5995 27.65 72.8575 27.722 73.1935 27.722C73.8655 27.722 74.5495 27.518 75.2455 27.11V25.382C74.2855 25.43 73.5295 25.58 72.9775 25.832C72.4375 26.072 72.1675 26.408 72.1675 26.84ZM84.4218 28.694C83.7258 29.054 83.0058 29.234 82.2618 29.234C81.7938 29.234 81.3738 29.144 81.0018 28.964C80.6298 28.784 80.3358 28.502 80.1198 28.118C79.9038 27.734 79.7958 27.254 79.7958 26.678V22.556H78.2658V21.026H79.7958V19.226L81.7398 18.938V21.026H84.2238L84.0258 22.556H81.7398V26.372C81.7398 26.816 81.8178 27.14 81.9738 27.344C82.1418 27.548 82.3818 27.65 82.6938 27.65C82.8738 27.65 83.0538 27.626 83.2338 27.578C83.4138 27.53 83.6298 27.458 83.8818 27.362L84.4218 28.694ZM88.5296 29.234C87.7976 29.234 87.1376 29.144 86.5496 28.964C85.9736 28.784 85.4336 28.514 84.9296 28.154L85.7576 26.84C86.6096 27.452 87.5156 27.758 88.4756 27.758C88.9436 27.758 89.2976 27.68 89.5376 27.524C89.7896 27.368 89.9156 27.146 89.9156 26.858C89.9156 26.69 89.8676 26.546 89.7716 26.426C89.6876 26.294 89.5256 26.168 89.2856 26.048C89.0456 25.928 88.7036 25.808 88.2596 25.688L87.7196 25.544C86.8676 25.316 86.2496 25.016 85.8656 24.644C85.4816 24.272 85.2896 23.78 85.2896 23.168C85.2896 22.7 85.4216 22.286 85.6856 21.926C85.9496 21.566 86.3156 21.284 86.7836 21.08C87.2636 20.876 87.8036 20.774 88.4036 20.774C89.5436 20.774 90.6056 21.062 91.5896 21.638L90.8336 22.934C90.3296 22.67 89.9036 22.49 89.5556 22.394C89.2076 22.298 88.8356 22.25 88.4396 22.25C88.0676 22.25 87.7796 22.322 87.5756 22.466C87.3716 22.61 87.2696 22.802 87.2696 23.042C87.2696 23.186 87.3056 23.312 87.3776 23.42C87.4496 23.516 87.5756 23.606 87.7556 23.69C87.9356 23.762 88.1936 23.84 88.5296 23.924L89.1056 24.068C90.0776 24.332 90.7796 24.674 91.2116 25.094C91.6556 25.502 91.8776 26.03 91.8776 26.678C91.8776 27.17 91.7516 27.608 91.4996 27.992C91.2476 28.376 90.8696 28.682 90.3656 28.91C89.8616 29.126 89.2496 29.234 88.5296 29.234ZM96.9308 20.774C97.9148 20.774 98.6528 20.984 99.1448 21.404C99.6368 21.824 99.8828 22.496 99.8828 23.42V29H98.1908L98.0468 28.334C97.6028 28.658 97.1468 28.886 96.6788 29.018C96.2228 29.162 95.7488 29.234 95.2568 29.234C94.7768 29.234 94.3508 29.144 93.9788 28.964C93.6188 28.784 93.3368 28.532 93.1328 28.208C92.9288 27.872 92.8268 27.488 92.8268 27.056C92.8268 26.408 93.0548 25.868 93.5108 25.436C93.9668 24.992 94.5788 24.662 95.3468 24.446C96.1148 24.23 96.9788 24.11 97.9388 24.086V23.78C97.9388 23.264 97.8428 22.892 97.6508 22.664C97.4588 22.436 97.1228 22.322 96.6428 22.322C95.8148 22.322 94.9268 22.628 93.9788 23.24L93.1868 21.998C93.7628 21.59 94.3568 21.284 94.9688 21.08C95.5808 20.876 96.2348 20.774 96.9308 20.774ZM94.8608 26.84C94.8608 27.128 94.9448 27.35 95.1128 27.506C95.2928 27.65 95.5508 27.722 95.8868 27.722C96.5588 27.722 97.2428 27.518 97.9388 27.11V25.382C96.9788 25.43 96.2228 25.58 95.6708 25.832C95.1308 26.072 94.8608 26.408 94.8608 26.84ZM106.587 20.774C107.319 20.774 107.931 20.948 108.423 21.296C108.915 21.632 109.275 22.106 109.503 22.718C109.743 23.318 109.863 24.014 109.863 24.806C109.863 25.778 109.671 26.6 109.287 27.272C108.903 27.932 108.393 28.424 107.757 28.748C107.133 29.072 106.437 29.234 105.669 29.234C105.189 29.234 104.673 29.162 104.121 29.018V32.348H102.177V21.044L104.121 20.846V21.548C104.529 21.296 104.943 21.104 105.363 20.972C105.783 20.84 106.191 20.774 106.587 20.774ZM105.417 27.758C106.149 27.758 106.731 27.512 107.163 27.02C107.607 26.528 107.829 25.796 107.829 24.824C107.829 23.948 107.673 23.318 107.361 22.934C107.061 22.538 106.599 22.34 105.975 22.34C105.387 22.34 104.769 22.526 104.121 22.898V27.578C104.577 27.698 105.009 27.758 105.417 27.758ZM116.079 20.774C116.811 20.774 117.423 20.948 117.915 21.296C118.407 21.632 118.767 22.106 118.995 22.718C119.235 23.318 119.355 24.014 119.355 24.806C119.355 25.778 119.163 26.6 118.779 27.272C118.395 27.932 117.885 28.424 117.249 28.748C116.625 29.072 115.929 29.234 115.161 29.234C114.681 29.234 114.165 29.162 113.613 29.018V32.348H111.669V21.044L113.613 20.846V21.548C114.021 21.296 114.435 21.104 114.855 20.972C115.275 20.84 115.683 20.774 116.079 20.774ZM114.909 27.758C115.641 27.758 116.223 27.512 116.655 27.02C117.099 26.528 117.321 25.796 117.321 24.824C117.321 23.948 117.165 23.318 116.853 22.934C116.553 22.538 116.091 22.34 115.467 22.34C114.879 22.34 114.261 22.526 113.613 22.898V27.578C114.069 27.698 114.501 27.758 114.909 27.758Z" fill="#F2F2F2"/>
<g clip-path="url(#clip0_1_2836)">
<path d="M25.253 30.494L25.977 30.917C27.198 31.6291 28.5866 32.0029 30 32C31.5823 32 33.129 31.5308 34.4446 30.6518C35.7602 29.7727 36.7855 28.5233 37.3911 27.0615C37.9966 25.5997 38.155 23.9911 37.8463 22.4393C37.5376 20.8874 36.7757 19.462 35.6569 18.3431C34.538 17.2243 33.1126 16.4624 31.5607 16.1537C30.0089 15.845 28.4004 16.0035 26.9385 16.609C25.4767 17.2145 24.2273 18.2398 23.3483 19.5554C22.4692 20.871 22 22.4177 22 24C22 25.436 22.377 26.813 23.084 28.024L23.506 28.748L22.853 31.149L25.253 30.494ZM20.004 34L21.356 29.032C20.4652 27.5049 19.9971 25.768 20 24C20 18.477 24.477 14 30 14C35.523 14 40 18.477 40 24C40 29.523 35.523 34 30 34C28.2328 34.0029 26.4967 33.5352 24.97 32.645L20.004 34ZM26.391 19.308C26.525 19.298 26.66 19.298 26.794 19.304C26.848 19.308 26.902 19.314 26.956 19.32C27.115 19.338 27.29 19.435 27.349 19.569C27.647 20.245 27.937 20.926 28.217 21.609C28.279 21.761 28.242 21.956 28.124 22.146C28.0429 22.2745 27.9551 22.3986 27.861 22.518C27.748 22.663 27.505 22.929 27.505 22.929C27.505 22.929 27.406 23.047 27.444 23.194C27.458 23.25 27.504 23.331 27.546 23.399L27.605 23.494C27.861 23.921 28.205 24.354 28.625 24.762C28.745 24.878 28.862 24.997 28.988 25.108C29.456 25.521 29.986 25.858 30.558 26.108L30.563 26.11C30.648 26.147 30.691 26.167 30.815 26.22C30.877 26.246 30.941 26.269 31.006 26.286C31.0732 26.3031 31.1439 26.2999 31.2093 26.2767C31.2746 26.2536 31.3316 26.2116 31.373 26.156C32.097 25.279 32.163 25.222 32.169 25.222V25.224C32.2193 25.1771 32.2791 25.1415 32.3443 25.1196C32.4095 25.0977 32.4786 25.09 32.547 25.097C32.607 25.101 32.668 25.112 32.724 25.137C33.255 25.38 34.124 25.759 34.124 25.759L34.706 26.02C34.804 26.067 34.893 26.178 34.896 26.285C34.9 26.352 34.906 26.46 34.883 26.658C34.851 26.917 34.773 27.228 34.695 27.391C34.6416 27.5022 34.5707 27.6042 34.485 27.693C34.3841 27.7989 34.2736 27.8954 34.155 27.981C34.114 28.0119 34.0723 28.0419 34.03 28.071C33.9056 28.1499 33.7778 28.2233 33.647 28.291C33.3895 28.4278 33.1052 28.5063 32.814 28.521C32.629 28.531 32.444 28.545 32.258 28.535C32.25 28.535 31.69 28.448 31.69 28.448C30.2683 28.074 28.9534 27.3735 27.85 26.402C27.624 26.203 27.415 25.989 27.201 25.776C26.311 24.891 25.639 23.936 25.231 23.034C25.0222 22.5913 24.9094 22.1094 24.9 21.62C24.8959 21.0129 25.0944 20.4217 25.464 19.94C25.537 19.846 25.606 19.748 25.725 19.635C25.852 19.515 25.932 19.451 26.019 19.407C26.1347 19.349 26.2609 19.315 26.39 19.307L26.391 19.308Z" fill="#F2F2F2"/>
</g>
<defs>
<clipPath id="clip0_1_2836">
<rect width="24" height="24" fill="white" transform="translate(18 12)"/>
</clipPath>
</defs>
</svg>
