<svg width="117" height="117" viewBox="0 0 117 117" fill="none" xmlns="http://www.w3.org/2000/svg">
<circle cx="58.5" cy="58.5" r="58.5" fill="white"/>
<g clip-path="url(#clip0_1_1601)">
<path d="M47.75 50V45.5C47.75 42.5163 48.9353 39.6548 51.045 37.545C53.1548 35.4353 56.0163 34.25 59 34.25C61.9837 34.25 64.8452 35.4353 66.955 37.545C69.0647 39.6548 70.25 42.5163 70.25 45.5V50H77C77.5967 50 78.169 50.2371 78.591 50.659C79.0129 51.081 79.25 51.6533 79.25 52.25V79.25C79.25 79.8467 79.0129 80.419 78.591 80.841C78.169 81.2629 77.5967 81.5 77 81.5H41C40.4033 81.5 39.831 81.2629 39.409 80.841C38.9871 80.419 38.75 79.8467 38.75 79.25V52.25C38.75 51.6533 38.9871 51.081 39.409 50.659C39.831 50.2371 40.4033 50 41 50H47.75ZM47.75 54.5H43.25V77H74.75V54.5H70.25V59H65.75V54.5H52.25V59H47.75V54.5ZM52.25 50H65.75V45.5C65.75 43.7098 65.0388 41.9929 63.773 40.727C62.5071 39.4612 60.7902 38.75 59 38.75C57.2098 38.75 55.4929 39.4612 54.227 40.727C52.9612 41.9929 52.25 43.7098 52.25 45.5V50Z" fill="#828282"/>
</g>
<defs>
<clipPath id="clip0_1_1601">
<rect width="54" height="54" fill="white" transform="translate(32 32)"/>
</clipPath>
</defs>
</svg>
