<svg width="86" height="86" viewBox="0 0 86 86" fill="none" xmlns="http://www.w3.org/2000/svg">
<circle cx="43" cy="43" r="43" fill="#EFF4E8"/>
<g clip-path="url(#clip0_1_34)">
<path d="M37.941 53C37.7429 54.3905 37.0497 55.6628 35.9888 56.5833C34.9279 57.5037 33.5705 58.0105 32.166 58.0105C30.7615 58.0105 29.4041 57.5037 28.3432 56.5833C27.2823 55.6628 26.5891 54.3905 26.391 53H24.666V33C24.666 32.558 24.8416 32.1341 25.1542 31.8215C25.4667 31.509 25.8907 31.3334 26.3327 31.3334H49.666C50.108 31.3334 50.532 31.509 50.8445 31.8215C51.1571 32.1341 51.3327 32.558 51.3327 33V36.3334H56.3327L61.3327 43.0934V53H57.941C57.7429 54.3905 57.0497 55.6628 55.9888 56.5833C54.9279 57.5037 53.5705 58.0105 52.166 58.0105C50.7615 58.0105 49.4041 57.5037 48.3432 56.5833C47.2823 55.6628 46.5891 54.3905 46.391 53H37.941ZM47.9993 34.6667H27.9993V48.0834C28.657 47.412 29.467 46.9095 30.3606 46.6186C31.2542 46.3276 32.2048 46.2569 33.1316 46.4124C34.0584 46.5678 34.934 46.9449 35.6837 47.5115C36.4334 48.0782 37.0352 48.8175 37.4377 49.6667H46.8943C47.1743 49.0784 47.5493 48.5434 47.9993 48.0834V34.6667ZM51.3327 44.6667H57.9993V44.1917L54.6527 39.6667H51.3327V44.6667ZM52.166 54.6667C52.8293 54.6667 53.4654 54.4032 53.9344 53.9342C54.4034 53.4652 54.6668 52.8291 54.6668 52.1659C54.6668 51.5026 54.4034 50.8665 53.9344 50.3975C53.4654 49.9285 52.8293 49.665 52.166 49.665C51.5028 49.665 50.8667 49.9285 50.3977 50.3975C49.9287 50.8665 49.6652 51.5026 49.6652 52.1659C49.6652 52.8291 49.9287 53.4652 50.3977 53.9342C50.8667 54.4032 51.5028 54.6667 52.166 54.6667ZM34.666 52.1667C34.666 51.8384 34.6014 51.5133 34.4757 51.21C34.3501 50.9067 34.1659 50.6311 33.9338 50.3989C33.7016 50.1668 33.426 49.9826 33.1227 49.857C32.8194 49.7314 32.4943 49.6667 32.166 49.6667C31.8377 49.6667 31.5126 49.7314 31.2093 49.857C30.906 49.9826 30.6304 50.1668 30.3982 50.3989C30.1661 50.6311 29.982 50.9067 29.8563 51.21C29.7307 51.5133 29.666 51.8384 29.666 52.1667C29.666 52.8298 29.9294 53.4656 30.3982 53.9345C30.8671 54.4033 31.503 54.6667 32.166 54.6667C32.8291 54.6667 33.4649 54.4033 33.9338 53.9345C34.4026 53.4656 34.666 52.8298 34.666 52.1667Z" fill="#5B8E19"/>
</g>
<defs>
<clipPath id="clip0_1_34">
<rect width="40" height="40" fill="white" transform="translate(23 23)"/>
</clipPath>
</defs>
</svg>
