<svg width="86" height="86" viewBox="0 0 86 86" fill="none" xmlns="http://www.w3.org/2000/svg">
<circle cx="43" cy="43" r="43" fill="#EFF4E8"/>
<g clip-path="url(#clip0_1_43)">
<path d="M28.0007 28H58.0007C58.4427 28 58.8666 28.1756 59.1792 28.4882C59.4917 28.8007 59.6673 29.2246 59.6673 29.6667V56.3333C59.6673 56.7754 59.4917 57.1993 59.1792 57.5118C58.8666 57.8244 58.4427 58 58.0007 58H28.0007C27.5586 58 27.1347 57.8244 26.8221 57.5118C26.5096 57.1993 26.334 56.7754 26.334 56.3333V29.6667C26.334 29.2246 26.5096 28.8007 26.8221 28.4882C27.1347 28.1756 27.5586 28 28.0007 28V28ZM56.334 41.3333H29.6673V54.6667H56.334V41.3333ZM56.334 38V31.3333H29.6673V38H56.334ZM46.334 48H53.0007V51.3333H46.334V48Z" fill="#5B8E19"/>
</g>
<defs>
<clipPath id="clip0_1_43">
<rect width="40" height="40" fill="white" transform="translate(23 23)"/>
</clipPath>
</defs>
</svg>
