<svg width="86" height="86" viewBox="0 0 86 86" fill="none" xmlns="http://www.w3.org/2000/svg">
<circle cx="43" cy="43" r="43" fill="#EFF4E8"/>
<g clip-path="url(#clip0_1_25)">
<path d="M42.1792 23.1094C41.4761 23.2813 41.0386 23.5703 39.7339 24.7188C39.0307 25.3438 38.3511 25.9297 38.2261 26.0313L37.9995 26.2188L35.8667 26.0469C32.6557 25.7891 32.1948 25.8203 31.3589 26.3047C30.9917 26.5157 30.3745 27.1094 30.1245 27.4922C30.0073 27.6719 29.5932 28.8282 29.1636 30.1875C28.4292 32.5235 28.4057 32.5703 28.1401 32.7266C25.8198 34.0703 24.3901 34.9688 24.0464 35.3125C23.1948 36.1485 22.812 37.4297 23.0932 38.5313C23.1401 38.7344 23.562 39.8203 24.0229 40.9453L24.8589 42.9844L24.0464 44.9688C23.5932 46.0547 23.1714 47.1407 23.1089 47.375C22.8979 48.1797 23.0229 49.1094 23.4448 49.8907C23.812 50.5703 24.3979 51.0157 26.6401 52.3516L28.7573 53.6172L29.2495 55.6328C29.5151 56.75 29.8354 57.8672 29.9604 58.1407C30.2417 58.7578 30.9214 59.4532 31.5307 59.75C32.3354 60.1407 32.6948 60.1641 35.4839 59.9453L37.9839 59.7578L39.3432 60.9532C40.0854 61.6094 40.8745 62.2656 41.0854 62.4063C42.1167 63.1016 43.4448 63.1719 44.5854 62.6016C44.8589 62.461 45.6089 61.8672 46.5307 61.0625L48.0151 59.7578L50.5151 59.9453C53.2964 60.1563 53.6167 60.1407 54.4448 59.75C55.0776 59.461 55.7495 58.7735 56.0386 58.1407C56.1636 57.8672 56.4839 56.7578 56.7495 55.6485L57.2261 53.6407L59.3511 52.3672C61.6011 51.0235 62.187 50.5703 62.5542 49.8907C62.9761 49.1094 63.1011 48.1797 62.8901 47.375C62.8276 47.1407 62.4057 46.0547 61.9526 44.9688L61.1401 42.9844L61.9917 40.9063C62.5307 39.5938 62.8823 38.625 62.937 38.2969C63.1245 37.2422 62.7417 36.086 61.9604 35.3125C61.6792 35.0391 60.8745 34.5078 59.4057 33.6328C58.2261 32.9297 57.2495 32.3438 57.2417 32.3438C57.2339 32.336 57.0151 31.4375 56.7495 30.3438C56.4136 28.9375 56.1948 28.1875 56.0073 27.7969C55.5307 26.8125 54.5229 26.0703 53.437 25.9063C53.0932 25.8516 52.3432 25.8828 50.6245 26.0157C49.3276 26.1172 48.2026 26.1953 48.1089 26.2032C48.0073 26.2032 47.4214 25.7344 46.5464 24.961C45.6557 24.1641 44.9604 23.6172 44.6401 23.4453C43.8276 23.0157 43.0229 22.9063 42.1792 23.1094ZM43.5307 25.5157C43.7104 25.6172 44.5542 26.3203 45.4136 27.0782C46.4214 27.9688 47.062 28.4844 47.2339 28.5313C47.4057 28.5782 48.3589 28.5313 50.2261 28.3907C51.8745 28.2657 53.0464 28.2032 53.187 28.2422C53.5229 28.336 53.7651 28.5235 53.8979 28.7813C53.9604 28.9063 54.2651 30.0313 54.562 31.2813C54.8667 32.5313 55.1714 33.6407 55.2339 33.75C55.3042 33.8594 56.4136 34.5703 57.7573 35.375C59.0698 36.1641 60.2261 36.8985 60.3198 37C60.5229 37.211 60.6557 37.5391 60.6557 37.8125C60.6557 37.9219 60.2182 39.0703 59.6792 40.375C59.1401 41.6797 58.7026 42.8516 58.7026 42.9922C58.7026 43.125 59.1323 44.2578 59.6557 45.5157C60.7026 48.0313 60.7886 48.375 60.4526 48.836C60.3589 48.9688 59.3198 49.6407 57.8901 50.5C56.562 51.2969 55.4057 52.0391 55.3042 52.1563C55.1714 52.3125 54.9995 52.8907 54.6011 54.5391C54.3198 55.7344 54.0464 56.8203 54.0073 56.961C53.8979 57.2969 53.4995 57.6719 53.187 57.7344C53.0386 57.7578 51.6948 57.6875 50.187 57.5703C47.8589 57.3907 47.4136 57.375 47.2026 57.461C47.0698 57.5157 46.2026 58.2188 45.2886 59.0313C43.4682 60.6328 43.2573 60.7578 42.687 60.586C42.4604 60.5235 41.9136 60.086 40.7261 59.0391C39.812 58.2422 38.9448 57.5391 38.7964 57.4766C38.5464 57.375 38.2495 57.3828 35.7964 57.5703C34.2964 57.6875 32.9604 57.7578 32.8198 57.7344C32.5386 57.6797 32.3042 57.5078 32.1167 57.2188C32.0464 57.1094 31.7417 55.9844 31.437 54.7188C31.1323 53.4453 30.8276 52.3282 30.7495 52.2188C30.5776 51.9766 30.1948 51.7266 27.6948 50.2422C26.5386 49.5469 25.6401 48.961 25.5464 48.836C25.2104 48.3828 25.2964 48.0391 26.3432 45.5157C26.8667 44.2578 27.2964 43.125 27.2964 42.9922C27.2964 42.8516 26.8589 41.6797 26.3198 40.375C25.7807 39.0703 25.3432 37.9141 25.3432 37.8047C25.3432 37.5 25.5307 37.1172 25.7886 36.8985C25.9136 36.7969 26.937 36.1641 28.0698 35.5C29.3432 34.75 30.1948 34.2032 30.3042 34.0547C30.4057 33.9141 30.7964 32.8203 31.2417 31.3985C31.6557 30.0703 32.0464 28.8828 32.1089 28.7657C32.2339 28.5235 32.4839 28.336 32.812 28.2422C32.9526 28.2032 34.1245 28.2657 35.7729 28.3907C37.6479 28.5313 38.5932 28.5782 38.7729 28.5313C38.9136 28.4922 39.3354 28.1953 39.7104 27.8594C40.0776 27.5313 40.8042 26.8907 41.3198 26.4297C41.8354 25.9766 42.3667 25.5469 42.4917 25.4766C42.8198 25.2969 43.1479 25.3125 43.5307 25.5157Z" fill="#5B8E19"/>
<path d="M41.5703 30.1954C38.6484 30.5313 35.9297 31.8516 33.8594 33.9376C31.9922 35.8204 30.7969 38.1329 30.2891 40.836C30.1094 41.836 30.1094 44.1641 30.2891 45.1641C31.3125 50.6251 35.375 54.6954 40.8359 55.711C41.7344 55.8751 44.0938 55.8985 44.9531 55.7501C48.8984 55.0547 52.1172 52.8594 54.125 49.4844C54.8828 48.211 55.5156 46.4219 55.7422 44.9141C55.8906 43.9532 55.875 41.836 55.7109 40.8907C55.0469 37.0079 52.7422 33.7579 49.2344 31.7266C47.0938 30.4922 44.1094 29.8985 41.5703 30.1954ZM44.9922 32.6485C47.0391 33.0782 48.7578 33.961 50.2109 35.3438C51.7813 36.8282 52.7891 38.6016 53.2969 40.7657C53.4688 41.5235 53.5 41.8047 53.5 43.0001C53.5 44.2032 53.4688 44.4766 53.2891 45.2422C52.6563 47.9844 51.0859 50.2579 48.7969 51.7813C47.6172 52.5704 46.4609 53.0391 44.9453 53.3672C44.1484 53.5313 42.0547 53.5547 41.2656 53.4063C39.0156 52.9844 37.1719 52.0157 35.5703 50.4297C34.0313 48.9063 33.0938 47.1485 32.6328 44.9532C32.4453 44.0313 32.4453 41.9688 32.6328 41.0469C33.0938 38.8516 33.9922 37.1641 35.5391 35.6094C37.3203 33.8204 39.3906 32.8126 41.9063 32.5001C42.4766 32.4297 44.3906 32.5235 44.9922 32.6485Z" fill="#5B8E19"/>
<path d="M48.3501 38.4375C48.2251 38.5078 46.7017 39.9766 44.9751 41.6953L41.8267 44.8359L39.8579 42.8672C38.772 41.7891 37.772 40.8516 37.6314 40.7812C36.6783 40.3047 35.6158 41.3672 36.0923 42.3203C36.2642 42.6641 40.9361 47.3516 41.2954 47.5391C41.6626 47.7266 41.9908 47.7266 42.3579 47.5391C42.7876 47.3125 49.7642 40.2969 49.9126 39.9375C50.0689 39.5625 50.0611 39.3594 49.8814 38.9609C49.6236 38.4062 48.897 38.1562 48.3501 38.4375Z" fill="#5B8E19"/>
</g>
<defs>
<clipPath id="clip0_1_25">
<rect width="40" height="40" fill="white" transform="translate(23 23)"/>
</clipPath>
</defs>
</svg>
