<svg width="64" height="64" viewBox="0 0 64 64" fill="none" xmlns="http://www.w3.org/2000/svg">
<g filter="url(#filter0_d_1_226)">
<circle cx="32" cy="27" r="27" transform="rotate(-180 32 27)" fill="white"/>
<g clip-path="url(#clip0_1_226)">
<path d="M27.2753 27.8999C27.0994 27.7243 27.0005 27.486 27.0003 27.2374V26.7624C27.0032 26.5144 27.1017 26.2771 27.2753 26.0999L33.7003 19.6874C33.7584 19.6289 33.8275 19.5824 33.9037 19.5506C33.9798 19.5189 34.0615 19.5026 34.144 19.5026C34.2265 19.5026 34.3082 19.5189 34.3844 19.5506C34.4606 19.5824 34.5297 19.6289 34.5878 19.6874L35.4753 20.5749C35.5335 20.632 35.5797 20.7 35.6113 20.7752C35.6429 20.8503 35.6591 20.931 35.6591 21.0124C35.6591 21.0939 35.6429 21.1746 35.6113 21.2497C35.5797 21.3248 35.5335 21.3929 35.4753 21.4499L29.9103 26.9974L35.4753 32.5499C35.5339 32.608 35.5804 32.6772 35.6121 32.7533C35.6438 32.8295 35.6602 32.9112 35.6602 32.9937C35.6602 33.0762 35.6438 33.1579 35.6121 33.2341C35.5804 33.3102 35.5339 33.3793 35.4753 33.4374L34.5878 34.3124C34.5297 34.371 34.4606 34.4175 34.3844 34.4492C34.3082 34.481 34.2265 34.4973 34.144 34.4973C34.0615 34.4973 33.9798 34.481 33.9037 34.4492C33.8275 34.4175 33.7584 34.371 33.7003 34.3124L27.2753 27.8999Z" fill="#242424"/>
</g>
</g>
<defs>
<filter id="filter0_d_1_226" x="0" y="0" width="64" height="64" filterUnits="userSpaceOnUse" color-interpolation-filters="sRGB">
<feFlood flood-opacity="0" result="BackgroundImageFix"/>
<feColorMatrix in="SourceAlpha" type="matrix" values="0 0 0 0 0 0 0 0 0 0 0 0 0 0 0 0 0 0 127 0" result="hardAlpha"/>
<feOffset dy="5"/>
<feGaussianBlur stdDeviation="2.5"/>
<feComposite in2="hardAlpha" operator="out"/>
<feColorMatrix type="matrix" values="0 0 0 0 0 0 0 0 0 0 0 0 0 0 0 0 0 0 0.15 0"/>
<feBlend mode="normal" in2="BackgroundImageFix" result="effect1_dropShadow_1_226"/>
<feBlend mode="normal" in="SourceGraphic" in2="effect1_dropShadow_1_226" result="shape"/>
</filter>
<clipPath id="clip0_1_226">
<rect width="30" height="30" fill="white" transform="translate(47 42) rotate(180)"/>
</clipPath>
</defs>
</svg>
