<svg width="127" height="47" viewBox="0 0 127 47" fill="none" xmlns="http://www.w3.org/2000/svg">
<rect x="0.5" y="0.5" width="126" height="46" rx="23" stroke="#5B8E19"/>
<path d="M57.2109 26.218C57.4749 26.218 57.6609 26.272 57.7689 26.38C57.8769 26.476 57.9309 26.62 57.9309 26.812C57.9309 27.148 57.8469 27.43 57.6789 27.658C57.5109 27.886 57.2169 28 56.7969 28C56.3409 28 55.8669 27.928 55.3749 27.784C54.8829 27.64 54.4629 27.418 54.1149 27.118C54.0309 27.202 53.9049 27.304 53.7369 27.424C53.3769 27.652 52.7229 27.838 51.7749 27.982C50.8269 28.126 49.9269 28.198 49.0749 28.198H47.9049C45.8889 28.198 44.3649 27.934 43.3329 27.406C42.3129 26.866 41.8029 26.02 41.8029 24.868C41.8029 24.112 41.8989 23.416 42.0909 22.78L43.4049 22.276L43.5489 22.366C43.4409 22.954 43.3869 23.476 43.3869 23.932C43.3869 24.592 43.5669 25.102 43.9269 25.462C44.2989 25.822 44.8449 26.074 45.5649 26.218C46.2969 26.362 47.2629 26.434 48.4629 26.434H49.5969C50.2449 26.434 50.9229 26.398 51.6309 26.326C52.3509 26.242 52.8609 26.134 53.1609 26.002C53.2929 25.714 53.4309 25.318 53.5749 24.814C53.7309 24.31 53.8629 23.8 53.9709 23.284L55.7709 22.852L55.9509 22.978C55.6869 24.094 55.3809 25.018 55.0329 25.75C55.6329 26.062 56.3589 26.218 57.2109 26.218ZM48.7869 32.248L47.1129 31.078L48.1569 29.548L49.8309 30.682L48.7869 32.248ZM63.4569 26.218C63.7209 26.218 63.9069 26.272 64.0149 26.38C64.1229 26.476 64.1769 26.62 64.1769 26.812C64.1769 27.148 64.0929 27.43 63.9249 27.658C63.7689 27.886 63.4809 28 63.0609 28C62.4249 28 61.8369 27.934 61.2969 27.802C60.7569 27.658 60.3129 27.442 59.9649 27.154C59.6529 27.442 59.2869 27.658 58.8669 27.802C58.4589 27.934 57.9729 28 57.4089 28H56.7969L57.2109 26.218H57.6969C57.9609 26.218 58.2129 26.194 58.4529 26.146C58.6929 26.098 58.8789 26.026 59.0109 25.93C59.2389 25.498 59.4909 24.616 59.7669 23.284L61.5669 22.852L61.7469 22.978C61.6029 23.59 61.4649 24.124 61.3329 24.58C61.2009 25.024 61.0569 25.42 60.9009 25.768C61.4769 26.068 62.3289 26.218 63.4569 26.218ZM59.0109 31.996L57.3729 30.862L58.3809 29.35L60.0009 30.466L59.0109 31.996ZM61.5849 31.996L59.9649 30.862L60.9729 29.35L62.5929 30.466L61.5849 31.996ZM63.4511 26.218H63.9731C64.9331 26.218 65.5451 26.158 65.8091 26.038C65.8571 25.906 65.8811 25.744 65.8811 25.552C65.8811 25.192 65.7971 24.784 65.6291 24.328C65.4611 23.86 65.2331 23.326 64.9451 22.726L66.3671 21.574H66.5471C66.8351 22.21 67.0631 22.846 67.2311 23.482C67.4111 24.106 67.5011 24.616 67.5011 25.012C67.5011 25.444 67.4231 25.864 67.2671 26.272C67.1111 26.68 66.8891 27.022 66.6011 27.298C66.3251 27.562 65.9711 27.748 65.5391 27.856C65.1071 27.952 64.4591 28 63.5951 28H63.0371L63.4511 26.218ZM64.8731 19.792L63.2531 18.658L64.2431 17.146L65.8631 18.262L64.8731 19.792ZM67.4111 19.792L65.7911 18.658L66.7991 17.146L68.4191 18.262L67.4111 19.792ZM74.9066 26.218C75.1826 26.218 75.3746 26.272 75.4826 26.38C75.5906 26.476 75.6446 26.62 75.6446 26.812C75.6446 27.148 75.5606 27.43 75.3926 27.658C75.2246 27.886 74.9306 28 74.5106 28C73.8986 28 73.4006 27.868 73.0166 27.604C72.8126 28.18 72.4586 28.714 71.9546 29.206C71.4626 29.698 70.8446 30.118 70.1006 30.466C69.3686 30.826 68.5406 31.084 67.6166 31.24L66.6626 29.926L66.7706 29.764C68.2586 29.488 69.4106 29.062 70.2266 28.486C71.0546 27.922 71.5946 27.286 71.8466 26.578C71.5706 25.87 71.1146 24.886 70.4786 23.626L71.7746 22.204H71.9726C72.1286 22.636 72.3746 23.302 72.7106 24.202L72.9086 24.724C73.0766 25.168 73.2326 25.492 73.3766 25.696C73.5326 25.9 73.7186 26.038 73.9346 26.11C74.1626 26.182 74.4866 26.218 74.9066 26.218ZM74.9296 26.218H75.4516C76.4116 26.218 77.0236 26.158 77.2876 26.038C77.3356 25.906 77.3596 25.744 77.3596 25.552C77.3596 25.192 77.2756 24.784 77.1076 24.328C76.9396 23.86 76.7116 23.326 76.4236 22.726L77.8456 21.574H78.0256C78.3136 22.21 78.5416 22.846 78.7096 23.482C78.8896 24.106 78.9796 24.616 78.9796 25.012C78.9796 25.444 78.9016 25.864 78.7456 26.272C78.5896 26.68 78.3676 27.022 78.0796 27.298C77.8036 27.562 77.4496 27.748 77.0176 27.856C76.5856 27.952 75.9376 28 75.0736 28H74.5156L74.9296 26.218ZM76.3516 19.792L74.7316 18.658L75.7216 17.146L77.3416 18.262L76.3516 19.792ZM78.8896 19.792L77.2696 18.658L78.2776 17.146L79.8976 18.262L78.8896 19.792Z" fill="#5B8E19"/>
<g clip-path="url(#clip0_1_3047)">
<path d="M23.0007 25.1719L27.9507 20.2219L29.3647 21.6359L23.0007 27.9999L16.6367 21.6359L18.0507 20.2219L23.0007 25.1719Z" fill="#5B8E19"/>
</g>
<g clip-path="url(#clip1_1_3047)">
<path d="M104 30V32H93V30H104ZM109 23V25H91V23H109ZM107 16V18H96V16H107Z" fill="#5B8E19"/>
</g>
<defs>
<clipPath id="clip0_1_3047">
<rect width="24" height="24" fill="white" transform="translate(11 12)"/>
</clipPath>
<clipPath id="clip1_1_3047">
<rect width="24" height="24" fill="white" transform="translate(88 12)"/>
</clipPath>
</defs>
</svg>
